<?xml version="1.0" encoding="utf-8"?>
<!-- Generator: Adobe Illustrator 17.0.0, SVG Export Plug-In . SVG Version: 6.00 Build 0)  -->
<!DOCTYPE svg PUBLIC "-//W3C//DTD SVG 1.1//EN" "http://www.w3.org/Graphics/SVG/1.1/DTD/svg11.dtd">
<svg version="1.1" id="Layer_1" xmlns="http://www.w3.org/2000/svg" xmlns:xlink="http://www.w3.org/1999/xlink" x="0px" y="0px"
	 width="40px" height="40px" viewBox="0 0 40 40" enable-background="new 0 0 40 40" xml:space="preserve">
<g>
	<path fill="#E5626C" d="M32.701,10.018c-0.308-2.85-0.656-7.206-4.058-8.192c-3.519-1.022-5.037,4.376-5.732,6.774
		c-0.884,3.046-1.296,7.543-0.904,10.649l8.326,1.155C31.327,17.671,33.02,12.978,32.701,10.018z"/>
	<path fill="#E5626C" d="M29.393,23.52l-7.194-0.997C20.947,31.615,28.089,33.071,29.393,23.52z"/>
	<path fill="#E5626C" d="M16.803,16.487c-1.477-2.453-3.624-6.256-7.124-5.712c-3.619,0.565-2.728,6.102-2.35,8.571
		c0.478,3.135,1.994,7.387,3.656,10.037l8.034-2.477C18.774,24.009,18.337,19.037,16.803,16.487z"/>
	<path fill="#E5626C" d="M12.536,32.271c2.687,8.774,9.776,7.072,6.942-2.14L12.536,32.271z"/>
</g>
</svg>
